#!OML:ASF X:\für Bonn\!DataBase\2005_08_12_Daniel\c3d\Daniel.ASF
:FULLY-SPECIFIED
:DEGREES
121
root 0.775919 11.4335 1.2464 163.718 -13.9762 -183.559
lowerback 73.3964 -5.01937 15.0907
upperback 10.7642 -4.0097 -0.0988644
thorax -8.39557 -5.33095 -3.65567
lowerneck 6.99762 -7.34678 -4.11383
upperneck 9.03287 -11.2114 8.02419
head 2.48561 -5.74788 3.29548
rclavicle -4.6118e-014 -1.11319e-014
rhumerus 12.5285 16.1883 -54.7291
rradius 40.9579
rwrist -30.5503
rhand -18.3615 5.56201
rfingers 7.12502
rthumb 7.92148 -24.2696
lclavicle -4.6118e-014 -1.11319e-014
lhumerus -25.7554 3.9232 86.9185
lradius 52.7089
lwrist -5.1691
lhand -12.9932 -9.03985
lfingers 7.12502
lthumb 13.0997 20.5287
rfemur -55.9802 -25.2418 1.78051
rtibia 118.769
rfoot -25.894 18.6292
rtoes -11.4467
lfemur -56.6734 12.2341 -18.1331
ltibia 117.7
lfoot -36.053 -19.39
ltoes -3.21224
122
root 0.786732 11.2798 1.22647 163.312 -14.3437 -183.676
lowerback 73.9793 -5.2504 15.2684
upperback 10.6397 -4.06507 -0.0189731
thorax -8.46406 -5.39044 -3.5677
lowerneck 7.09286 -7.47492 -4.10215
upperneck 9.0653 -11.3982 8.04977
head 2.49527 -5.84112 3.30267
rclavicle 1.43125e-014 5.56597e-014
rhumerus 12.6975 16.3991 -54.0828
rradius 40.2953
rwrist -30.0075
rhand -18.6213 5.5137
rfingers 7.12502
rthumb 7.67067 -24.3272
lclavicle 1.43125e-014 5.56597e-014
lhumerus -25.8723 3.66651 86.9795
lradius 52.8397
lwrist -5.02702
lhand -12.9725 -9.11933
lfingers 7.12502
lthumb 13.1197 20.448
rfemur -56.3807 -26.5106 0.871957
rtibia 120.335
rfoot -25.8743 19.3763
rtoes -11.7971
lfemur -57.3616 12.7438 -18.0257
ltibia 119.14
lfoot -35.9638 -20.0261
ltoes -3.14345
123
root 0.797066 11.125 1.20626 162.891 -14.7087 -183.798
lowerback 74.5451 -5.48812 15.4487
upperback 10.5205 -4.12653 0.0571495
thorax -8.52556 -5.45232 -3.48265
lowerneck 7.16927 -7.60225 -4.08922
upperneck 9.10266 -11.5825 8.06253
head 2.50871 -5.93265 3.30432
rclavicle -6.04305e-014 7.95139e-015
rhumerus 12.8267 16.5928 -53.4816
rradius 39.6444
rwrist -29.4168
rhand -18.8921 5.48103
rfingers 7.12502
rthumb 7.40934 -24.3692
lclavicle -6.04305e-014 7.95139e-015
lhumerus -25.9619 3.41858 87.0568
lradius 52.9059
lwrist -4.89385
lhand -12.9521 -9.12799
lfingers 7.12502
lthumb 13.1394 20.438
rfemur -56.7508 -27.9022 -0.0999288
rtibia 121.904
rfoot -25.907 20.1035
rtoes -12.3978
lfemur -58.0388 13.2523 -17.9241
ltibia 120.56
lfoot -35.8203 -20.6524
ltoes -2.8762
124
root 0.808035 10.97 1.1858 162.446 -15.0576 -183.892
lowerback 75.1141 -5.70314 15.618
upperback 10.4007 -4.16876 0.146793
thorax -8.58343 -5.5094 -3.38522
lowerneck 7.2848 -7.7297 -4.0962
upperneck 9.12854 -11.7714 8.10262
head 2.51534 -6.02804 3.32095
rclavicle 2.70347e-014 3.18055e-015
rhumerus 12.9093 16.7477 -52.9304
rradius 39.0112
rwrist -28.8353
rhand -19.0842 5.49457
rfingers 7.12502
rthumb 7.22386 -24.3621
lclavicle 2.70347e-014 3.18055e-015
lhumerus -26.0453 3.20272 87.1163
lradius 52.9598
lwrist -4.79095
lhand -12.8913 -9.12049
lfingers 7.12502
lthumb 13.198 20.4417
rfemur -57.0934 -29.4103 -1.06377
rtibia 123.469
rfoot -26.033 20.7133
rtoes -13.1929
lfemur -58.6842 13.8429 -17.7468
ltibia 121.962
lfoot -35.693 -21.3312
ltoes -2.70141
125
root 0.819449 10.8146 1.16546 161.992 -15.4111 -183.981
lowerback 75.6477 -5.91795 15.778
upperback 10.3038 -4.2298 0.231824
thorax -8.61809 -5.57469 -3.28411
lowerneck 7.36385 -7.8426 -4.04126
upperneck 9.15957 -11.9322 8.10388
head 2.52066 -6.107 3.31191
rclavicle 1.11319e-014 -2.78299e-014
rhumerus 12.9996 16.8607 -52.4565
rradius 38.3826
rwrist -28.2779
rhand -19.1853 5.53759
rfingers 7.12502
rthumb 7.12629 -24.3224
lclavicle 1.11319e-014 -2.78299e-014
lhumerus -26.1083 3.06486 87.1694
lradius 52.9723
lwrist -4.77587
lhand -12.8916 -9.0814
lfingers 7.12502
lthumb 13.1977 20.4809
rfemur -57.3552 -31.0492 -2.10784
rtibia 125.004
rfoot -26.2531 21.394
rtoes -14.1477
lfemur -59.33 14.4612 -17.5627
ltibia 123.344
lfoot -35.541 -21.9995
ltoes -2.54449
126
root 0.830138 10.6599 1.14555 161.482 -15.7209 -184.064
lowerback 76.2096 -6.12166 15.9475
upperback 10.2113 -4.27647 0.30968
thorax -8.64105 -5.63748 -3.2
lowerneck 7.44128 -7.96027 -3.98986
upperneck 9.21486 -12.104 8.10531
head 2.53559 -6.19155 3.30291
rclavicle -3.02153e-014 -4.6118e-014
rhumerus 13.0398 16.9536 -52.0158
rradius 37.7776
rwrist -27.7784
rhand -19.2581 5.55302
rfingers 7.12502
rthumb 7.056 -24.3094
lclavicle -3.02153e-014 -4.6118e-014
lhumerus -26.1755 2.85719 87.2273
lradius 52.9823
lwrist -4.62022
lhand -12.8792 -9.03311
lfingers 7.12502
lthumb 13.2097 20.5284
rfemur -57.5196 -32.7477 -3.25516
rtibia 126.517
rfoot -26.4664 22.1315
rtoes -15.1008
lfemur -59.8908 15.1791 -17.2976
ltibia 124.712
lfoot -35.4035 -22.7298
ltoes -2.30645
127
root 0.840502 10.5049 1.1253 160.997 -16.0217 -184.136
lowerback 76.7138 -6.29659 16.0859
upperback 10.1179 -4.3102 0.399549
thorax -8.6708 -5.69302 -3.09774
lowerneck 7.58612 -8.06561 -3.92786
upperneck 9.24335 -12.257 8.08896
head 2.52596 -6.2694 3.29029
rclavicle 5.08889e-014 2.54444e-014
rhumerus 13.0796 16.9975 -51.679
rradius 37.1514
rwrist -27.25
rhand -19.3234 5.56154
rfingers 7.12502
rthumb 6.99293 -24.3029
lclavicle 5.08889e-014 2.54444e-014
lhumerus -26.2828 2.74178 87.2887
lradius 52.9749
lwrist -4.54983
lhand -12.8626 -8.9902
lfingers 7.12502
lthumb 13.2257 20.5702
rfemur -57.6223 -34.5742 -4.51817
rtibia 127.999
rfoot -26.678 23.0245
rtoes -15.7545
lfemur -60.4925 15.9578 -17.0144
ltibia 126.073
lfoot -35.2454 -23.4429
ltoes -2.1733
128
root 0.851471 10.3527 1.10597 160.459 -16.3081 -184.173
lowerback 77.2191 -6.47916 16.2591
upperback 10.0558 -4.3455 0.485736
thorax -8.6579 -5.75322 -3.01426
lowerneck 7.75031 -8.18184 -3.84541
upperneck 9.21807 -12.4161 8.0958
head 2.49549 -6.34938 3.28411
rclavicle 3.33958e-014 3.57812e-014
rhumerus 13.1209 16.9611 -51.4071
rradius 36.533
rwrist -26.7847
rhand -19.3673 5.62191
rfingers 7.12502
rthumb 6.9506 -24.244
lclavicle 3.33958e-014 3.57812e-014
lhumerus -26.3768 2.55522 87.3279
lradius 52.997
lwrist -4.44422
lhand -12.9297 -8.88762
lfingers 7.12502
lthumb 13.161 20.677
rfemur -57.5677 -36.4465 -5.90624
rtibia 129.437
rfoot -26.8452 24.0179
rtoes -16.3171
lfemur -61.0325 16.7838 -16.6412
ltibia 127.394
lfoot -35.0913 -24.235
ltoes -2.00317
129
root 0.861064 10.1988 1.08574 159.921 -16.5861 -184.207
lowerback 77.6895 -6.65396 16.4159
upperback 9.99398 -4.38405 0.568063
thorax -8.64928 -5.81302 -2.92875
lowerneck 8.04098 -8.27996 -3.75834
upperneck 9.10708 -12.5447 8.12596
head 2.41325 -6.41856 3.29435
rclavicle 6.36111e-015 -1.90833e-014
rhumerus 13.1102 16.8809 -51.228
rradius 35.9635
rwrist -26.2737
rhand -19.2911 5.65436
rfingers 7.12502
rthumb 7.02414 -24.2091
lclavicle 6.36111e-015 -1.90833e-014
lhumerus -26.5131 2.42861 87.3707
lradius 53.0504
lwrist -4.35883
lhand -12.888 -8.74907
lfingers 7.12502
lthumb 13.2011 20.813
rfemur -57.3783 -38.5243 -7.49012
rtibia 130.86
rfoot -27.0958 25.1132
rtoes -16.862
lfemur -61.5798 17.7118 -16.2351
ltibia 128.729
lfoot -34.9464 -25.0399
ltoes -1.89025
130
root 0.869138 10.046 1.06578 159.358 -16.8582 -184.204
lowerback 78.1721 -6.88412 16.6341
upperback 9.91393 -4.42296 0.618001
thorax -8.65456 -5.86748 -2.90028
lowerneck 8.26255 -8.38996 -3.63522
upperneck 9.08484 -12.6959 8.13006
head 2.37023 -6.49598 3.28404
rclavicle 7.95139e-015 3.97569e-015
rhumerus 13.0665 16.713 -51.1403
rradius 35.3461
rwrist -25.7779
rhand -19.195 5.67765
rfingers 7.12502
rthumb 7.11696 -24.1827
lclavicle 7.95139e-015 3.97569e-015
lhumerus -26.6611 2.25882 87.3878
lradius 53.0685
lwrist -4.309
lhand -12.8978 -8.6156
lfingers 7.12502
lthumb 13.1917 20.947
rfemur -57.0088 -40.7018 -9.28152
rtibia 132.244
rfoot -27.3406 26.3567
rtoes -17.257
lfemur -62.1018 18.6836 -15.7542
ltibia 130.038
lfoot -34.7849 -25.9137
ltoes -1.55517
131
root 0.877929 9.89466 1.04488 158.799 -17.1148 -184.183
lowerback 78.6291 -7.06822 16.8071
upperback 9.85201 -4.45809 0.714645
thorax -8.64038 -5.92975 -2.80397
lowerneck 8.46204 -8.47828 -3.61577
upperneck 9.02471 -12.819 8.16579
head 2.32626 -6.56166 3.30307
rclavicle 1.11319e-014 -6.91771e-014
rhumerus 13.079 16.5436 -51.0604
rradius 34.755
rwrist -25.2907
rhand -19.1106 5.76036
rfingers 7.12502
rthumb 7.19841 -24.0972
lclavicle 1.11319e-014 -6.91771e-014
lhumerus -26.79 2.27186 87.4317
lradius 53.0971
lwrist -4.29437
lhand -12.8789 -8.46708
lfingers 7.12502
lthumb 13.21 21.0944
rfemur -56.4387 -43.0094 -11.2871
rtibia 133.599
rfoot -27.6902 27.6784
rtoes -17.7081
lfemur -62.6038 19.7821 -15.1911
ltibia 131.337
lfoot -34.7088 -26.8296
ltoes -1.52804
132
root 0.887004 9.74623 1.02338 158.203 -17.3505 -184.149
lowerback 79.1217 -7.26747 17.0009
upperback 9.77154 -4.4817 0.780985
thorax -8.64187 -5.98413 -2.75208
lowerneck 8.61613 -8.58529 -3.51088
upperneck 9.05233 -12.9708 8.15549
head 2.31198 -6.638 3.28695
rclavicle -1.43125e-014 -4.85035e-014
rhumerus 12.9997 16.3634 -51.0463
rradius 34.2039
rwrist -24.8291
rhand -19.1293 5.82889
rfingers 7.12502
rthumb 7.1803 -24.0293
lclavicle -1.43125e-014 -4.85035e-014
lhumerus -26.8737 2.28309 87.4616
lradius 53.0198
lwrist -4.31003
lhand -12.7761 -8.33066
lfingers 7.12502
lthumb 13.309 21.2244
rfemur -55.642 -45.3028 -13.5109
rtibia 134.912
rfoot -28.1099 28.998
rtoes -18.0977
lfemur -63.0364 20.9771 -14.5453
ltibia 132.599
lfoot -34.629 -27.7577
ltoes -1.38563
133
root 0.895344 9.5979 1.00302 157.6 -17.5986 -184.076
lowerback 79.6001 -7.47815 17.2017
upperback 9.68782 -4.50842 0.874616
thorax -8.64352 -6.04419 -2.66771
lowerneck 8.75265 -8.67014 -3.45333
upperneck 9.04693 -13.0898 8.15599
head 2.29141 -6.69904 3.28318
rclavicle 1.74931e-014 5.00937e-014
rhumerus 12.9932 16.1837 -51.0151
rradius 33.6362
rwrist -24.4269
rhand -19.069 5.90149
rfingers 7.12502
rthumb 7.23852 -23.9547
lclavicle 1.74931e-014 5.00937e-014
lhumerus -26.9796 2.42219 87.5296
lradius 52.9711
lwrist -4.37668
lhand -12.6426 -8.13187
lfingers 7.12502
lthumb 13.4377 21.4147
rfemur -54.531 -47.7002 -16.0776
rtibia 136.18
rfoot -28.5228 30.4683
rtoes -18.3708
lfemur -63.5001 22.2505 -13.8066
ltibia 133.861
lfoot -34.5166 -28.8232
ltoes -1.19416
